<svg xmlns="http://www.w3.org/2000/svg" viewBox="0 0 1400 770" width="100%" height="100%">
  <defs>
    <style>
      @import url('https://fonts.googleapis.com/css2?family=DM+Sans:wght@400;500;600;700&amp;display=swap');
      
      .title { fill: #f8fafc; font-size: 32px; font-family: 'DM Sans', system-ui, sans-serif; font-weight: 600; letter-spacing: 0.5px; }
      .box-txt { fill: #f8fafc; font-size: 18px; font-family: 'DM Sans', system-ui, sans-serif; font-weight: 500; text-anchor: middle; dominant-baseline: middle; }
      .label-txt { fill: #94a3b8; font-size: 16px; font-family: 'DM Sans', system-ui, sans-serif; font-weight: 500; text-anchor: middle; dominant-baseline: middle; }
      
      .node-rect {
        fill: rgba(30, 41, 59, 0.8);
        stroke-width: 2;
        rx: 12;
      }

      .line-straight { stroke: #64748b; stroke-width: 2; fill: none; }
      .line-path { stroke: #0ea5e9; stroke-width: 2; fill: none; stroke-dasharray: 6 6; animation: dash 2s linear infinite; }
      @keyframes dash { to { stroke-dashoffset: -12; } }

      .halo {
        paint-order: stroke fill; stroke: #0f172a; stroke-width: 6px; stroke-linecap: round; stroke-linejoin: round;
      }

      /* Theme Adaptation */
      rect[fill="url(#bg)"] { fill: transparent !important; }
      @media (prefers-color-scheme: light) {
        .node-rect { fill: #ffffff !important; }
        
        .title, .box-txt { fill: #0f172a !important; }
        .label-txt { fill: #475569 !important; }
        .halo { stroke: #ffffff !important; }
        .line-straight { stroke: #cbd5e1 !important; }
        .line-path { stroke: #0284c7 !important; }
      }
    </style>

    <marker id="arrow-solid" viewBox="0 0 10 10" refX="9" refY="5" markerWidth="6" markerHeight="6" orient="auto-start-reverse">
        <path d="M 0 0 L 10 5 L 0 10 z" fill="#64748b" />
    </marker>
    <marker id="arrow-dash" viewBox="0 0 10 10" refX="9" refY="5" markerWidth="6" markerHeight="6" orient="auto-start-reverse">
        <path d="M 0 0 L 10 5 L 0 10 z" fill="#0ea5e9" />
    </marker>

    <filter id="shadow" x="-10%" y="-10%" width="120%" height="120%">
      <feDropShadow dx="0" dy="8" stdDeviation="6" flood-color="#000" flood-opacity="0.4" />
    </filter>

    <linearGradient id="bg" x1="0" y1="0" x2="0" y2="1">
      <stop offset="0%" stop-color="#0b1121" />
      <stop offset="100%" stop-color="#0f172a" />
    </linearGradient>
  </defs>

  <rect width="1400" height="770" fill="url(#bg)" rx="16" />

  <text x="50" y="80" class="title">Phương pháp Extreme Programming</text>

  <!-- Flow Lines -->
  <g>
    <!-- Test Scenarios -->
    <path class="line-straight" d="M 270 177.5 L 980 177.5 L 980 352" marker-end="url(#arrow-solid)" />
    <!-- Requirements -->
    <path class="line-straight" d="M 255 215 L 386 360" marker-end="url(#arrow-solid)" />
    <!-- System Metaphor -->
    <path class="line-straight" d="M 270 397.5 L 382 397.5" marker-end="url(#arrow-solid)" />
    <!-- Release Plan -->
    <path class="line-straight" d="M 530 397.5 L 642 397.5" marker-end="url(#arrow-solid)" />
    <!-- Latest Version -->
    <path class="line-straight" d="M 790 397.5 L 902 397.5" marker-end="url(#arrow-solid)" />
    <!-- Customer Approval -->
    <path class="line-straight" d="M 1050 397.5 L 1162 397.5" marker-end="url(#arrow-solid)" />

    <!-- Dashed Return/Feedback Loops -->
    <!-- New Stories -->
    <path class="line-path" d="M 510 360 C 540 310, 600 310, 644 356" marker-end="url(#arrow-dash)" />
    <!-- Bugs -->
    <path class="line-path" d="M 770 360 C 800 310, 860 310, 904 356" marker-end="url(#arrow-dash)" />
    <!-- Next Iteration -->
    <path class="line-path" d="M 930 435 C 890 495, 830 495, 776 439" marker-end="url(#arrow-dash)" />
    <!-- Uncertain Estimates -->
    <path class="line-path" d="M 420 435 C 340 480, 340 530, 415 577" marker-end="url(#arrow-dash)" />
    <!-- Confident Estimates -->
    <path class="line-path" d="M 500 580 C 580 530, 580 480, 505 438" marker-end="url(#arrow-dash)" />
  </g>

  <!-- Line Labels with Halo -->
  <g class="label-txt halo">
    <text x="625" y="177.5">Kịch bản Kiểm thử</text>
    <text x="320" y="280">Yêu cầu</text>
    
    <text x="330" y="385">Kiến trúc</text>
    <text x="330" y="410">Hệ thống</text>
    
    <text x="590" y="385">Kế hoạch</text>
    <text x="590" y="410">Phát hành</text>
    
    <text x="850" y="385">Phiên bản</text>
    <text x="850" y="410">Mới nhất</text>
    
    <text x="1110" y="385">Khách hàng</text>
    <text x="1110" y="410">Nghiệm thu</text>
    
    <text x="575" y="322">Story mới</text>
    <text x="835" y="322">Lỗi</text>
    <text x="850" y="480">Vòng lặp Kế tiếp</text>
    
    <text x="350" y="500">Ước tính</text>
    <text x="350" y="525">Chưa chắc</text>
    
    <text x="575" y="500">Ước tính</text>
    <text x="575" y="525">Tự tin</text>
  </g>

  <!-- Nodes -->
  <!-- User Stories -->
  <rect x="130" y="140" width="140" height="75" class="node-rect" stroke="#e11d48" filter="url(#shadow)" />
  <text class="box-txt" x="200" y="177.5">
    <tspan x="200" dy="-10">Cốt truyện</tspan>
    <tspan x="200" dy="24">Người dùng</tspan>
  </text>

  <!-- Architectural Spike -->
  <rect x="130" y="360" width="140" height="75" class="node-rect" stroke="#8b5cf6" filter="url(#shadow)" />
  <text class="box-txt" x="200" y="397.5">
    <tspan x="200" dy="-10">Spike</tspan>
    <tspan x="200" dy="24">Kiến trúc</tspan>
  </text>

  <!-- Release Planning -->
  <rect x="390" y="360" width="140" height="75" class="node-rect" stroke="#f59e0b" filter="url(#shadow)" />
  <text class="box-txt" x="460" y="397.5">
    <tspan x="460" dy="-10">Lập Kế hoạch</tspan>
    <tspan x="460" dy="24">Phát hành</tspan>
  </text>

  <!-- Spike (Under Planning) -->
  <rect x="390" y="580" width="140" height="75" class="node-rect" stroke="#8b5cf6" filter="url(#shadow)" />
  <text class="box-txt" x="460" y="617.5">Spike</text>

  <!-- Iteration -->
  <rect x="650" y="360" width="140" height="75" class="node-rect" stroke="#10b981" filter="url(#shadow)" />
  <text class="box-txt" x="720" y="397.5">Vòng lặp</text>

  <!-- Acceptance Tests -->
  <rect x="910" y="360" width="140" height="75" class="node-rect" stroke="#3b82f6" filter="url(#shadow)" />
  <text class="box-txt" x="980" y="397.5">
    <tspan x="980" dy="-10">Kiểm thử</tspan>
    <tspan x="980" dy="24">Nghiệm </tspan>
  </text>

  <!-- Small Releases -->
  <rect x="1170" y="360" width="140" height="75" class="node-rect" stroke="#14b8a6" filter="url(#shadow)" />
  <text class="box-txt" x="1240" y="397.5">
    <tspan x="1240" dy="-10">Phát hành</tspan>
    <tspan x="1240" dy="24">quy mô nhỏ</tspan>
  </text>
</svg>